# xmcd CD database file
#
# Track frame offsets:
#	150
#	13802
#	26688
#	42078
#	56493
#	72267
#	83443
#	97256
#	110867
#	123652
#
# Disc length: 1824 seconds
#
# Revision: 0
# Processed by: cddbd v1.5.2PL0 Copyright (c) Steve Scherf et al.
# Submitted via: CDex 1.51
#
DISCID=87071e0a
DTITLE=Heather and the Nearly Homeless Blues Band - Live in the Studio
DYEAR=2007
DGENRE=Blues
TTITLE0=Stormy Weather
TTITLE1=Don't Advertise Your Man
TTITLE2=Love Me Like a Man
TTITLE3=All Of Me
TTITLE4=You've Been a Good Ole Wagon
TTITLE5=Honeysuckle Rose
TTITLE6=I'll Try to Forget
TTITLE7=Blue Moon of Kentucky
TTITLE8=Don't Advertise Your Man (alternate take)
TTITLE9=Stormy Weather (alternate take)
EXTD=YEAR: 2007
EXTT0=
EXTT1=
EXTT2=
EXTT3=
EXTT4=
EXTT5=
EXTT6=
EXTT7=
EXTT8=
EXTT9=
PLAYORDER=
